<svg width="100" height="100" viewBox="0 0 100 100" fill="none" xmlns="http://www.w3.org/2000/svg">
<g id="Group 9">
<circle id="Ellipse 1" cx="50" cy="50" r="50" fill="#CCDDFF"/>
<g id="&#240;&#159;&#166;&#134; icon &#34;profile&#34;">
<g id="Group">
<path id="Vector" opacity="0.4" d="M49.3419 10C38.4206 10 29.5418 18.8788 29.5418 29.8001C29.5418 40.513 37.9204 49.1833 48.8417 49.5585C49.1752 49.5168 49.5086 49.5168 49.7587 49.5585H49.9672H50.0505C60.7217 49.1833 69.1003 40.513 69.142 29.8001C69.142 18.8788 60.2632 10 49.3419 10Z" fill="#1D4799"/>
<path id="Vector_2" d="M70.5213 60.6461C58.8914 52.8928 39.9251 52.8928 28.2118 60.6461C22.9179 64.1893 20 68.983 20 74.1102C20 79.2374 22.9179 83.9894 28.1701 87.4909C34.006 91.4092 41.6757 93.3684 49.3457 93.3684C57.0156 93.3684 64.6855 91.4092 70.5213 87.4909C75.7736 83.9477 78.6915 79.1957 78.6915 74.0268C78.6498 68.8996 75.7736 64.1476 70.5213 60.6461Z" fill="#1D4799"/>
</g>
</g>
</g>
</svg>
