<svg width="22" height="22" viewBox="0 0 22 22" fill="none" xmlns="http://www.w3.org/2000/svg">
<g id="&#240;&#159;&#166;&#134; icon &#34;back square&#34;">
<g id="Group">
<path id="Vector" d="M13.548 21.1841H7.63613C2.28591 21.1841 0 18.8982 0 13.548V7.63613C0 2.28591 2.28591 0 7.63613 0H13.548C18.8982 0 21.1841 2.28591 21.1841 7.63613V13.548C21.1841 18.8982 18.8982 21.1841 13.548 21.1841ZM7.63613 1.47796C3.09386 1.47796 1.47796 3.09386 1.47796 7.63613V13.548C1.47796 18.0902 3.09386 19.7061 7.63613 19.7061H13.548C18.0902 19.7061 19.7061 18.0902 19.7061 13.548V7.63613C19.7061 3.09386 18.0902 1.47796 13.548 1.47796H7.63613Z" fill="#292D32"/>
<path id="Vector_2" d="M12.4842 14.6611H7.63652C7.23254 14.6611 6.89754 14.3261 6.89754 13.9221C6.89754 13.5181 7.23254 13.1831 7.63652 13.1831H12.4842C13.7454 13.1831 14.78 12.1584 14.78 10.8873C14.78 9.6163 13.7553 8.59161 12.4842 8.59161H5.8137C5.40972 8.59161 5.07472 8.2566 5.07472 7.85263C5.07472 7.44865 5.40972 7.11365 5.8137 7.11365H12.4842C14.5632 7.11365 16.258 8.80835 16.258 10.8873C16.258 12.9663 14.5632 14.6611 12.4842 14.6611Z" fill="#292D32"/>
<path id="Vector_3" d="M7.21191 10.1189C7.0247 10.1189 6.83749 10.0499 6.6897 9.90214L5.14276 8.35523C4.85702 8.06949 4.85702 7.59654 5.14276 7.3108L6.6897 5.76386C6.97543 5.47813 7.44838 5.47813 7.73412 5.76386C8.01986 6.0496 8.01986 6.52256 7.73412 6.8083L6.7094 7.83301L7.73412 8.85771C8.01986 9.14345 8.01986 9.6164 7.73412 9.90214C7.59618 10.0401 7.40897 10.1189 7.21191 10.1189Z" fill="#292D32"/>
</g>
</g>
</svg>
