<svg width="21" height="21" viewBox="0 0 21 21" fill="none" xmlns="http://www.w3.org/2000/svg">
<g id="&#240;&#159;&#166;&#134; icon &#34;close circle&#34;">
<g id="Group">
<path id="Vector" opacity="0.4" d="M10.3018 20.6036C15.9913 20.6036 20.6036 15.9913 20.6036 10.3018C20.6036 4.61227 15.9913 0 10.3018 0C4.61227 0 0 4.61227 0 10.3018C0 15.9913 4.61227 20.6036 10.3018 20.6036Z" fill="#292D32"/>
<path id="Vector_2" d="M11.3931 10.3018L13.7626 7.93245C14.0613 7.6337 14.0613 7.13921 13.7626 6.84046C13.4638 6.54171 12.9693 6.54171 12.6706 6.84046L10.3011 9.20986L7.93171 6.84046C7.63295 6.54171 7.13847 6.54171 6.83973 6.84046C6.54097 7.13921 6.54097 7.6337 6.83973 7.93245L9.20916 10.3018L6.83973 12.6713C6.54097 12.97 6.54097 13.4645 6.83973 13.7633C6.99425 13.9178 7.18998 13.9899 7.38571 13.9899C7.58144 13.9899 7.77718 13.9178 7.93171 13.7633L10.3011 11.3938L12.6706 13.7633C12.8251 13.9178 13.0208 13.9899 13.2166 13.9899C13.4123 13.9899 13.608 13.9178 13.7626 13.7633C14.0613 13.4645 14.0613 12.97 13.7626 12.6713L11.3931 10.3018Z" fill="#292D32"/>
</g>
</g>
</svg>
