<svg width="25" height="27" viewBox="0 0 25 27" fill="none" xmlns="http://www.w3.org/2000/svg">
<rect width="25" height="27" fill="#1E1E1E"/>
<g id="Chat page" clip-path="url(#clip0_0_1)">
<rect width="375" height="812" transform="translate(-51 -771)" fill="white"/>
<g id="Group 3" filter="url(#filter0_d_0_1)">
<g id="Group 4">
<g id="Group 5">
<rect id="Rectangle 2" x="-51" y="-17" width="188" height="58" rx="4" fill="#CCDDFF"/>
<g id="Group 1">
<g id="&#240;&#159;&#166;&#134; icon &#34;message&#34;">
<g id="Group">
<path id="Vector" opacity="0.4" d="M0 14.453V6.57433C0 2.93803 2.8 0 6.25 0H18.75C22.2 0 25 2.93803 25 6.57433V15.7705C25 19.3936 22.2 22.3317 18.75 22.3317H16.875C16.4875 22.3317 16.1125 22.5293 15.875 22.8587L14 25.4805C13.175 26.6399 11.825 26.6399 11 25.4805L9.125 22.8587C8.925 22.5688 8.475 22.3317 8.125 22.3317H6.25C2.8 22.3317 0 19.3936 0 15.7705V14.453Z" fill="#1D4799"/>
<path id="Vector_2" d="M12.5 13.175C11.8 13.175 11.25 12.5821 11.25 11.8575C11.25 11.1329 11.8125 10.54 12.5 10.54C13.1875 10.54 13.75 11.1329 13.75 11.8575C13.75 12.5821 13.2 13.175 12.5 13.175Z" fill="#1D4799"/>
<path id="Vector_3" d="M17.5 13.175C16.8 13.175 16.25 12.5821 16.25 11.8575C16.25 11.1329 16.8125 10.54 17.5 10.54C18.1875 10.54 18.75 11.1329 18.75 11.8575C18.75 12.5821 18.2 13.175 17.5 13.175Z" fill="#1D4799"/>
<path id="Vector_4" d="M7.5 13.175C6.8 13.175 6.25 12.5821 6.25 11.8575C6.25 11.1329 6.8125 10.54 7.5 10.54C8.1875 10.54 8.75 11.1329 8.75 11.8575C8.75 12.5821 8.2 13.175 7.5 13.175Z" fill="#1D4799"/>
</g>
</g>
</g>
</g>
</g>
</g>
</g>
<defs>
<filter id="filter0_d_0_1" x="-55" y="-17" width="383" height="66" filterUnits="userSpaceOnUse" color-interpolation-filters="sRGB">
<feFlood flood-opacity="0" result="BackgroundImageFix"/>
<feColorMatrix in="SourceAlpha" type="matrix" values="0 0 0 0 0 0 0 0 0 0 0 0 0 0 0 0 0 0 127 0" result="hardAlpha"/>
<feOffset dy="4"/>
<feGaussianBlur stdDeviation="2"/>
<feComposite in2="hardAlpha" operator="out"/>
<feColorMatrix type="matrix" values="0 0 0 0 0 0 0 0 0 0 0 0 0 0 0 0 0 0 0.25 0"/>
<feBlend mode="normal" in2="BackgroundImageFix" result="effect1_dropShadow_0_1"/>
<feBlend mode="normal" in="SourceGraphic" in2="effect1_dropShadow_0_1" result="shape"/>
</filter>
<clipPath id="clip0_0_1">
<rect width="375" height="812" fill="white" transform="translate(-51 -771)"/>
</clipPath>
</defs>
</svg>
