<svg width="20" height="20" viewBox="0 0 20 20" fill="none" xmlns="http://www.w3.org/2000/svg">
<g id="&#240;&#159;&#166;&#134; icon &#34;edit&#34;">
<g id="Group">
<path id="Vector" opacity="0.4" d="M12.8973 1.5733H5.2814C1.98052 1.5733 0 3.54426 0 6.8547V14.4611C0 17.7811 1.98052 19.752 5.2814 19.752H12.8878C16.1982 19.752 18.1692 17.7811 18.1692 14.4706V6.8547C18.1787 3.54426 16.1982 1.5733 12.8973 1.5733Z" fill="#292D32"/>
<path id="Vector_2" d="M18.1974 1.55396C16.4848 -0.168233 14.8104 -0.206504 13.0499 1.55396L11.9688 2.62555C11.8731 2.72123 11.8444 2.85518 11.8827 2.97956C12.5524 5.32366 14.4277 7.19893 16.7718 7.86868C16.8005 7.87824 16.8483 7.87824 16.877 7.87824C16.9727 7.87824 17.0684 7.83997 17.1354 7.773L18.1974 6.70141C19.0681 5.83075 19.4986 4.99835 19.4986 4.14682C19.4986 3.28572 19.0681 2.4342 18.1974 1.55396Z" fill="#292D32"/>
<path id="Vector_3" d="M15.1736 8.67239C14.9153 8.54801 14.6665 8.42363 14.4369 8.28011C14.2455 8.16534 14.0542 8.04096 13.8724 7.90701C13.7193 7.81133 13.5471 7.66781 13.3748 7.5243C13.3557 7.51473 13.2983 7.46689 13.2218 7.39035C12.9252 7.15116 12.6094 6.82585 12.3128 6.47185C12.2937 6.45271 12.2363 6.3953 12.1884 6.30919C12.0928 6.20395 11.9492 6.02216 11.8249 5.82124C11.7196 5.68729 11.5952 5.49594 11.4804 5.29501C11.3369 5.05582 11.2125 4.81663 11.0977 4.56786C10.9733 4.29997 10.8777 4.05121 10.7916 3.81201L5.64412 8.95942C5.30925 9.29429 4.98395 9.92576 4.91697 10.3946L4.50556 13.2458C4.41945 13.8485 4.5821 14.413 4.95524 14.7862C5.27098 15.1019 5.70153 15.2646 6.17992 15.2646C6.28516 15.2646 6.39041 15.255 6.49565 15.2454L9.33725 14.8436C9.80607 14.7766 10.4375 14.4609 10.7724 14.1164L15.9199 8.96899C15.6807 8.89245 15.4415 8.7872 15.1736 8.67239Z" fill="#292D32"/>
</g>
</g>
</svg>
