<svg width="30" height="31" viewBox="0 0 30 31" fill="none" xmlns="http://www.w3.org/2000/svg">
<g id="&#240;&#159;&#166;&#134; icon &#34;more&#34;">
<g id="Group">
<path id="Vector" opacity="0.4" d="M21.2956 0H8.71935C3.25662 0 0 3.25662 0 8.71935V21.2806C0 26.7583 3.25662 30.015 8.71935 30.015H21.2806C26.7433 30.015 29.9999 26.7583 29.9999 21.2956V8.71935C30.015 3.25662 26.7583 0 21.2956 0Z" fill="#292D32"/>
<path id="Vector_2" d="M15.0068 13.0414C13.9262 13.0414 13.0408 13.9268 13.0408 15.0073C13.0408 16.0879 13.9262 16.9733 15.0068 16.9733C16.0873 16.9733 16.9727 16.0879 16.9727 15.0073C16.9727 13.9268 16.0873 13.0414 15.0068 13.0414Z" fill="#292D32"/>
<path id="Vector_3" d="M7.50291 13.0414C6.42237 13.0414 5.53693 13.9268 5.53693 15.0073C5.53693 16.0879 6.42237 16.9733 7.50291 16.9733C8.58345 16.9733 9.46889 16.0879 9.46889 15.0073C9.46889 13.9268 8.58345 13.0414 7.50291 13.0414Z" fill="#292D32"/>
<path id="Vector_4" d="M22.5105 13.0414C21.4299 13.0414 20.5445 13.9268 20.5445 15.0073C20.5445 16.0879 21.4299 16.9733 22.5105 16.9733C23.591 16.9733 24.4765 16.0879 24.4765 15.0073C24.4765 13.9268 23.591 13.0414 22.5105 13.0414Z" fill="#292D32"/>
</g>
</g>
</svg>
