<svg width="19" height="19" viewBox="0 0 19 19" fill="none" xmlns="http://www.w3.org/2000/svg">
<g id="&#240;&#159;&#166;&#134; icon &#34;add circle&#34;">
<path id="Vector" d="M9.5 0C4.2655 0 0 4.2655 0 9.5C0 14.7345 4.2655 19 9.5 19C14.7345 19 19 14.7345 19 9.5C19 4.2655 14.7345 0 9.5 0ZM13.3 10.2125H10.2125V13.3C10.2125 13.6895 9.8895 14.0125 9.5 14.0125C9.1105 14.0125 8.7875 13.6895 8.7875 13.3V10.2125H5.7C5.3105 10.2125 4.9875 9.8895 4.9875 9.5C4.9875 9.1105 5.3105 8.7875 5.7 8.7875H8.7875V5.7C8.7875 5.3105 9.1105 4.9875 9.5 4.9875C9.8895 4.9875 10.2125 5.3105 10.2125 5.7V8.7875H13.3C13.6895 8.7875 14.0125 9.1105 14.0125 9.5C14.0125 9.8895 13.6895 10.2125 13.3 10.2125Z" fill="#1D4799"/>
</g>
</svg>
