<svg width="63" height="63" viewBox="0 0 63 63" fill="none" xmlns="http://www.w3.org/2000/svg">
<g id="&#240;&#159;&#166;&#134; icon &#34;add circle&#34;">
<g id="Group">
<path id="Vector" opacity="0.4" d="M31.0348 62.0697C48.1747 62.0697 62.0697 48.1747 62.0697 31.0348C62.0697 13.8948 48.1747 0 31.0348 0C13.8948 0 0 13.8948 0 31.0348C0 48.1747 13.8948 62.0697 31.0348 62.0697Z" fill="#292D32"/>
<path id="Vector_2" d="M43.4488 28.7072H33.3624V18.6209C33.3624 17.3485 32.3073 16.2933 31.0348 16.2933C29.7624 16.2933 28.7072 17.3485 28.7072 18.6209V28.7072H18.6209C17.3485 28.7072 16.2933 29.7624 16.2933 31.0348C16.2933 32.3072 17.3485 33.3624 18.6209 33.3624H28.7072V43.4488C28.7072 44.7212 29.7624 45.7764 31.0348 45.7764C32.3073 45.7764 33.3624 44.7212 33.3624 43.4488V33.3624H43.4488C44.7212 33.3624 45.7764 32.3072 45.7764 31.0348C45.7764 29.7624 44.7212 28.7072 43.4488 28.7072Z" fill="#292D32"/>
</g>
</g>
</svg>
