<svg width="24" height="24" viewBox="0 0 24 24" fill="none" xmlns="http://www.w3.org/2000/svg">
<g id="&#240;&#159;&#166;&#134; icon &#34;add circle&#34;">
<path id="Vector" d="M11.6643 0C5.23725 0 0 5.23725 0 11.6643C0 18.0913 5.23725 23.3285 11.6643 23.3285C18.0913 23.3285 23.3285 18.0913 23.3285 11.6643C23.3285 5.23725 18.0913 0 11.6643 0ZM16.33 12.5391H12.5391V16.33C12.5391 16.8082 12.1425 17.2048 11.6643 17.2048C11.186 17.2048 10.7894 16.8082 10.7894 16.33V12.5391H6.99855C6.52032 12.5391 6.12373 12.1425 6.12373 11.6643C6.12373 11.186 6.52032 10.7894 6.99855 10.7894H10.7894V6.99855C10.7894 6.52032 11.186 6.12373 11.6643 6.12373C12.1425 6.12373 12.5391 6.52032 12.5391 6.99855V10.7894H16.33C16.8082 10.7894 17.2048 11.186 17.2048 11.6643C17.2048 12.1425 16.8082 12.5391 16.33 12.5391Z" fill="#D9D9D9"/>
</g>
</svg>
