<svg width="25" height="25" viewBox="0 0 25 25" fill="none" xmlns="http://www.w3.org/2000/svg">
<g id="&#240;&#159;&#166;&#134; icon &#34;profile circle&#34;">
<g id="Group">
<path id="Vector" opacity="0.4" d="M12.5 25C19.4035 25 25 19.4036 25 12.5C25 5.59644 19.4035 0 12.5 0C5.59644 0 0 5.59644 0 12.5C0 19.4036 5.59644 25 12.5 25Z" fill="#1D4799"/>
<path id="Vector_2" d="M12.5 6.16241C9.9125 6.16241 7.8125 8.26241 7.8125 10.8499C7.8125 13.3874 9.8 15.4499 12.4375 15.5249H12.55H12.6375H12.6625C15.1875 15.4374 17.175 13.3874 17.1875 10.8499C17.1875 8.26241 15.0875 6.16241 12.5 6.16241Z" fill="#1D4799"/>
<path id="Vector_3" d="M20.9758 21.6877C18.7508 23.7377 15.7758 25.0002 12.5008 25.0002C9.22579 25.0002 6.25079 23.7377 4.02579 21.6877C4.32579 20.5502 5.13829 19.5127 6.32579 18.7127C9.73829 16.4377 15.2883 16.4377 18.6758 18.7127C19.8758 19.5127 20.6758 20.5502 20.9758 21.6877Z" fill="#1D4799"/>
</g>
</g>
</svg>
