<svg width="26" height="26" viewBox="0 0 26 26" fill="none" xmlns="http://www.w3.org/2000/svg">
<g id="&#240;&#159;&#166;&#134; icon &#34;send 2&#34;">
<g id="Group">
<path id="Vector" opacity="0.4" d="M6.14101 4.59396L18.305 0.534794C23.7667 -1.28576 26.7335 1.69456 24.9265 7.15622L20.8673 19.3202C18.1432 27.506 13.666 27.506 10.9419 19.3202L9.74166 15.7061L6.12752 14.5058C-2.04475 11.7952 -2.04475 7.33154 6.14101 4.59396Z" fill="#292D32"/>
<path id="Vector_2" d="M12.8975 13.2517C12.6412 13.2517 12.385 13.1573 12.1827 12.955C11.7916 12.5639 11.7916 11.9166 12.1827 11.5255L17.3072 6.374C17.6983 5.98292 18.3456 5.98292 18.7367 6.374C19.1278 6.76508 19.1278 7.41239 18.7367 7.80347L13.6122 12.955C13.4099 13.1438 13.1537 13.2517 12.8975 13.2517Z" fill="#292D32"/>
</g>
</g>
</svg>
