<svg width="18" height="20" viewBox="0 0 18 20" fill="none" xmlns="http://www.w3.org/2000/svg">
<g id="&#240;&#159;&#166;&#134; icon &#34;trash&#34;">
<g id="Group">
<path id="Vector" d="M17.3617 3.75119C15.8767 3.60361 14.3918 3.49293 12.8976 3.40992V3.4007L12.6947 2.20166C12.5563 1.35311 12.3534 0.0802917 10.1951 0.0802917H7.77861C5.62954 0.0802917 5.42663 1.29777 5.27906 2.19244L5.08537 3.37303C4.22759 3.42837 3.36982 3.48371 2.51205 3.56672L0.630486 3.75119C0.243105 3.78808 -0.0335956 4.12934 0.00329783 4.5075C0.0401913 4.88566 0.372232 5.16236 0.759613 5.12547L2.64118 4.941C7.47424 4.46139 12.3442 4.64585 17.2326 5.13469H17.3063C17.6568 5.13469 17.9612 4.86721 17.9981 4.5075C18.0258 4.12934 17.7491 3.78808 17.3617 3.75119Z" fill="#292D32"/>
<path id="Vector_2" opacity="0.3991" d="M15.6646 6.43521C15.4432 6.20463 15.1389 6.0755 14.8253 6.0755H3.16699C2.85339 6.0755 2.5398 6.20463 2.32766 6.43521C2.11552 6.6658 1.99562 6.97939 2.01407 7.30221L2.58591 16.7654C2.68737 18.1673 2.8165 19.9198 6.03545 19.9198H11.9568C15.1757 19.9198 15.305 18.1765 15.4063 16.7654L15.9782 7.31143C15.9966 6.97939 15.8767 6.6658 15.6646 6.43521Z" fill="#292D32"/>
<g id="Group_2">
<path id="Vector_3" fill-rule="evenodd" clip-rule="evenodd" d="M6.7644 14.6071C6.7644 14.2251 7.07411 13.9154 7.45617 13.9154H10.5276C10.9096 13.9154 11.2193 14.2251 11.2193 14.6071C11.2193 14.9892 10.9096 15.2989 10.5276 15.2989H7.45617C7.07411 15.2989 6.7644 14.9892 6.7644 14.6071Z" fill="#292D32"/>
<path id="Vector_4" fill-rule="evenodd" clip-rule="evenodd" d="M5.99878 10.9178C5.99878 10.5357 6.30849 10.226 6.69053 10.226H11.3022C11.6842 10.226 11.994 10.5357 11.994 10.9178C11.994 11.2998 11.6842 11.6095 11.3022 11.6095H6.69053C6.30849 11.6095 5.99878 11.2998 5.99878 10.9178Z" fill="#292D32"/>
</g>
</g>
</g>
</svg>
